<svg xmlns="http://www.w3.org/2000/svg" width="1200" height="675" viewBox="0 0 1200 675" role="img" aria-labelledby="title desc">
  <title id="title">Football Decision Lab</title>
  <desc id="desc">Cover for Football Decision Lab.</desc>
  <defs>
    <linearGradient id="bg" x1="0" y1="0" x2="1" y2="1">
      <stop offset="0%" stop-color="#07111f"/>
      <stop offset="55%" stop-color="#111827"/>
      <stop offset="100%" stop-color="#14532d"/>
    </linearGradient>
    <linearGradient id="accent" x1="0" y1="0" x2="1" y2="1">
      <stop offset="0%" stop-color="#86efac"/>
      <stop offset="100%" stop-color="#22c55e"/>
    </linearGradient>
    <filter id="blur" x="-20%" y="-20%" width="140%" height="140%">
      <feGaussianBlur stdDeviation="24" />
    </filter>
  </defs>
  <rect width="1200" height="675" rx="32" fill="url(#bg)" />
  <circle cx="992" cy="118" r="150" fill="#86efac" opacity="0.16" filter="url(#blur)" />
  <circle cx="840" cy="380" r="220" fill="#22c55e" opacity="0.16" filter="url(#blur)" />
  <path d="M0 438C240 344 402 320 592 334C790 349 900 450 1200 368V675H0Z" fill="#020617" opacity="0.46" />

  <text x="72" y="100" fill="#bbf7d0" font-family="Segoe UI, Inter, Arial, sans-serif" font-size="20" font-weight="700" letter-spacing="4">04 / 06</text>
  <text x="72" y="190" fill="#ffffff" font-family="Segoe UI, Inter, Arial, sans-serif" font-size="50" font-weight="800">Football Decision</text>
  <text x="72" y="250" fill="#ffffff" font-family="Segoe UI, Inter, Arial, sans-serif" font-size="50" font-weight="800">Lab</text>
  <text x="72" y="318" fill="#dcfce7" font-family="Segoe UI, Inter, Arial, sans-serif" font-size="26" font-weight="500">Decisao esportiva auditavel com ML temporal</text>

  <rect x="72" y="374" width="96" height="44" rx="22" fill="#052e16" stroke="url(#accent)" stroke-width="2" />
  <text x="120" y="403" fill="#ecfdf5" text-anchor="middle" font-family="Segoe UI, Inter, Arial, sans-serif" font-size="18" font-weight="700">ML</text>
  <rect x="178" y="374" width="120" height="44" rx="22" fill="#052e16" stroke="url(#accent)" stroke-width="2" />
  <text x="238" y="403" fill="#ecfdf5" text-anchor="middle" font-family="Segoe UI, Inter, Arial, sans-serif" font-size="18" font-weight="700">MLOps</text>
  <rect x="308" y="374" width="138" height="44" rx="22" fill="#052e16" stroke="url(#accent)" stroke-width="2" />
  <text x="377" y="403" fill="#ecfdf5" text-anchor="middle" font-family="Segoe UI, Inter, Arial, sans-serif" font-size="18" font-weight="700">Research</text>

  <rect x="850" y="182" width="250" height="174" rx="28" fill="#020617" opacity="0.66" stroke="#14532d" />
  <path d="M886 254L930 220L972 254L930 288Z" fill="#86efac" opacity="0.9" />
  <circle cx="1030" cy="254" r="32" fill="#86efac" opacity="0.18" />
  <path d="M886 296H1072" stroke="url(#accent)" stroke-width="5" stroke-linecap="round" />
  <text x="886" y="344" fill="#bbf7d0" font-family="Segoe UI, Inter, Arial, sans-serif" font-size="16" font-weight="600">paper trading, auditoria e experimentacao</text>
</svg>
